<?xml version="1.0" standalone="no"?>
<!DOCTYPE svg PUBLIC "-//W3C//DTD SVG 20010904//EN"
 "http://www.w3.org/TR/2001/REC-SVG-20010904/DTD/svg10.dtd">
<svg version="1.0" xmlns="http://www.w3.org/2000/svg"
 width="100.000000pt" height="100.000000pt" viewBox="0 0 100.000000 100.000000"
 preserveAspectRatio="xMidYMid meet">
<metadata>
Created by potrace 1.11, written by Peter Selinger 2001-2013
</metadata>
<g transform="translate(0.000000,100.000000) scale(0.100000,-0.100000)"
fill="#000000" stroke="none">
<path d="M403 836 c-104 -34 -176 -98 -222 -196 -37 -79 -37 -201 1 -281 36
-79 86 -130 165 -170 61 -31 75 -34 153 -34 70 1 95 5 141 27 79 36 133 89
171 166 30 60 33 76 33 152 0 70 -5 95 -27 141 -57 124 -168 199 -301 205 -43
3 -89 -2 -114 -10z"/>
</g>
</svg>
